<?xml version="1.0" standalone="no"?><!DOCTYPE svg PUBLIC "-//W3C//DTD SVG 1.1//EN" "http://www.w3.org/Graphics/SVG/1.1/DTD/svg11.dtd"><svg t="1634543470018" class="icon" viewBox="0 0 1024 1024" version="1.1" xmlns="http://www.w3.org/2000/svg" p-id="5375" xmlns:xlink="http://www.w3.org/1999/xlink" width="200" height="200"><defs><style type="text/css"></style></defs><path d="M992 832h-96V160c0-88.192-71.744-160-160-160H160C71.744 0 0 71.808 0 160c0 17.664 14.336 32 32 32h224v672c0 88.192 71.744 160 160 160h448c88.256 0 160-71.808 160-160 0-17.664-14.336-32-32-32zM69.504 128C82.688 90.752 118.272 64 160 64c41.728 0 77.312 26.752 90.496 64H69.504zM512 864c0 52.928-43.072 96-96 96s-96-43.072-96-96V160c0-36.16-12.48-69.184-32.832-96H736c52.928 0 96 43.072 96 96v672H544c-17.664 0-32 14.336-32 32z m352 96H543.936a159.12 159.12 0 0 0 28.864-64h381.696c-13.184 37.248-48.768 64-90.496 64zM608 448c52.928 0 96 43.072 96 96 0 41.664-26.816 76.864-64 90.112V672c0 17.664-14.336 32-32 32s-32-14.336-32-32v-32h-32c-17.664 0-32-14.336-32-32s14.336-32 32-32h64c17.6 0 32-14.336 32-32s-14.4-32-32-32c-52.928 0-96-43.072-96-96 0-41.664 26.816-76.864 64-90.112V288c0-17.664 14.336-32 32-32s32 14.336 32 32v32h32c17.664 0 32 14.336 32 32s-14.336 32-32 32h-64c-17.6 0-32 14.336-32 32s14.4 32 32 32z" fill="#20A0FF" p-id="5376"></path></svg>